<mxfile host="app.diagrams.net" modified="2024-06-12T12:02:19.651Z" agent="Mozilla/5.0 (Windows NT 10.0; Win64; x64) AppleWebKit/537.36 (KHTML, like Gecko) Chrome/125.0.0.0 Safari/537.36" etag="RNAHOJnvQg0djbxGDyOP" version="24.5.3" type="device">
  <diagram name="Page-1" id="pU5h-TDbezzzfDPzF7FZ">
    <mxGraphModel dx="1366" dy="710" grid="1" gridSize="10" guides="1" tooltips="1" connect="1" arrows="1" fold="1" page="1" pageScale="1" pageWidth="850" pageHeight="1100" math="0" shadow="0">
      <root>
        <mxCell id="0" />
        <mxCell id="1" parent="0" />
        <mxCell id="HqaHNRsiFfNzOrm7pFgI-1" value="user" style="swimlane;fontStyle=0;childLayout=stackLayout;horizontal=1;startSize=26;horizontalStack=0;resizeParent=1;resizeParentMax=0;resizeLast=0;collapsible=1;marginBottom=0;align=center;fontSize=14;strokeWidth=1;" vertex="1" parent="1">
          <mxGeometry x="10" y="50" width="160" height="146" as="geometry" />
        </mxCell>
        <mxCell id="HqaHNRsiFfNzOrm7pFgI-2" value="id" style="text;strokeColor=none;fillColor=none;spacingLeft=4;spacingRight=4;overflow=hidden;rotatable=0;points=[[0,0.5],[1,0.5]];portConstraint=eastwest;fontSize=12;whiteSpace=wrap;html=1;" vertex="1" parent="HqaHNRsiFfNzOrm7pFgI-1">
          <mxGeometry y="26" width="160" height="30" as="geometry" />
        </mxCell>
        <mxCell id="HqaHNRsiFfNzOrm7pFgI-3" value="email" style="text;strokeColor=none;fillColor=none;spacingLeft=4;spacingRight=4;overflow=hidden;rotatable=0;points=[[0,0.5],[1,0.5]];portConstraint=eastwest;fontSize=12;whiteSpace=wrap;html=1;" vertex="1" parent="HqaHNRsiFfNzOrm7pFgI-1">
          <mxGeometry y="56" width="160" height="30" as="geometry" />
        </mxCell>
        <mxCell id="HqaHNRsiFfNzOrm7pFgI-4" value="password" style="text;strokeColor=none;fillColor=none;spacingLeft=4;spacingRight=4;overflow=hidden;rotatable=0;points=[[0,0.5],[1,0.5]];portConstraint=eastwest;fontSize=12;whiteSpace=wrap;html=1;" vertex="1" parent="HqaHNRsiFfNzOrm7pFgI-1">
          <mxGeometry y="86" width="160" height="30" as="geometry" />
        </mxCell>
        <mxCell id="HqaHNRsiFfNzOrm7pFgI-8" value="role STRING" style="text;strokeColor=none;fillColor=none;spacingLeft=4;spacingRight=4;overflow=hidden;rotatable=0;points=[[0,0.5],[1,0.5]];portConstraint=eastwest;fontSize=12;whiteSpace=wrap;html=1;" vertex="1" parent="HqaHNRsiFfNzOrm7pFgI-1">
          <mxGeometry y="116" width="160" height="30" as="geometry" />
        </mxCell>
        <mxCell id="HqaHNRsiFfNzOrm7pFgI-9" value="basket" style="swimlane;fontStyle=0;childLayout=stackLayout;horizontal=1;startSize=26;horizontalStack=0;resizeParent=1;resizeParentMax=0;resizeLast=0;collapsible=1;marginBottom=0;align=center;fontSize=14;strokeWidth=1;" vertex="1" parent="1">
          <mxGeometry x="260" y="50" width="160" height="86" as="geometry" />
        </mxCell>
        <mxCell id="HqaHNRsiFfNzOrm7pFgI-10" value="id" style="text;strokeColor=none;fillColor=none;spacingLeft=4;spacingRight=4;overflow=hidden;rotatable=0;points=[[0,0.5],[1,0.5]];portConstraint=eastwest;fontSize=12;whiteSpace=wrap;html=1;" vertex="1" parent="HqaHNRsiFfNzOrm7pFgI-9">
          <mxGeometry y="26" width="160" height="30" as="geometry" />
        </mxCell>
        <mxCell id="HqaHNRsiFfNzOrm7pFgI-11" value="user_id" style="text;strokeColor=none;fillColor=none;spacingLeft=4;spacingRight=4;overflow=hidden;rotatable=0;points=[[0,0.5],[1,0.5]];portConstraint=eastwest;fontSize=12;whiteSpace=wrap;html=1;" vertex="1" parent="HqaHNRsiFfNzOrm7pFgI-9">
          <mxGeometry y="56" width="160" height="30" as="geometry" />
        </mxCell>
        <mxCell id="HqaHNRsiFfNzOrm7pFgI-14" value="" style="edgeStyle=entityRelationEdgeStyle;fontSize=12;html=1;endArrow=ERmandOne;startArrow=ERmandOne;rounded=0;exitX=0.998;exitY=0.805;exitDx=0;exitDy=0;exitPerimeter=0;entryX=-0.022;entryY=0.276;entryDx=0;entryDy=0;entryPerimeter=0;" edge="1" parent="1" source="HqaHNRsiFfNzOrm7pFgI-2" target="HqaHNRsiFfNzOrm7pFgI-10">
          <mxGeometry width="100" height="100" relative="1" as="geometry">
            <mxPoint x="220" y="150" as="sourcePoint" />
            <mxPoint x="320" y="50" as="targetPoint" />
          </mxGeometry>
        </mxCell>
        <mxCell id="HqaHNRsiFfNzOrm7pFgI-15" value="device" style="swimlane;fontStyle=0;childLayout=stackLayout;horizontal=1;startSize=26;horizontalStack=0;resizeParent=1;resizeParentMax=0;resizeLast=0;collapsible=1;marginBottom=0;align=center;fontSize=14;strokeWidth=1;" vertex="1" parent="1">
          <mxGeometry x="760" y="50" width="160" height="236" as="geometry" />
        </mxCell>
        <mxCell id="HqaHNRsiFfNzOrm7pFgI-16" value="id" style="text;strokeColor=none;fillColor=none;spacingLeft=4;spacingRight=4;overflow=hidden;rotatable=0;points=[[0,0.5],[1,0.5]];portConstraint=eastwest;fontSize=12;whiteSpace=wrap;html=1;" vertex="1" parent="HqaHNRsiFfNzOrm7pFgI-15">
          <mxGeometry y="26" width="160" height="30" as="geometry" />
        </mxCell>
        <mxCell id="HqaHNRsiFfNzOrm7pFgI-17" value="name" style="text;strokeColor=none;fillColor=none;spacingLeft=4;spacingRight=4;overflow=hidden;rotatable=0;points=[[0,0.5],[1,0.5]];portConstraint=eastwest;fontSize=12;whiteSpace=wrap;html=1;" vertex="1" parent="HqaHNRsiFfNzOrm7pFgI-15">
          <mxGeometry y="56" width="160" height="30" as="geometry" />
        </mxCell>
        <mxCell id="HqaHNRsiFfNzOrm7pFgI-18" value="price" style="text;strokeColor=none;fillColor=none;spacingLeft=4;spacingRight=4;overflow=hidden;rotatable=0;points=[[0,0.5],[1,0.5]];portConstraint=eastwest;fontSize=12;whiteSpace=wrap;html=1;" vertex="1" parent="HqaHNRsiFfNzOrm7pFgI-15">
          <mxGeometry y="86" width="160" height="30" as="geometry" />
        </mxCell>
        <mxCell id="HqaHNRsiFfNzOrm7pFgI-19" value="rating" style="text;strokeColor=none;fillColor=none;spacingLeft=4;spacingRight=4;overflow=hidden;rotatable=0;points=[[0,0.5],[1,0.5]];portConstraint=eastwest;fontSize=12;whiteSpace=wrap;html=1;" vertex="1" parent="HqaHNRsiFfNzOrm7pFgI-15">
          <mxGeometry y="116" width="160" height="30" as="geometry" />
        </mxCell>
        <mxCell id="HqaHNRsiFfNzOrm7pFgI-22" value="img" style="text;strokeColor=none;fillColor=none;spacingLeft=4;spacingRight=4;overflow=hidden;rotatable=0;points=[[0,0.5],[1,0.5]];portConstraint=eastwest;fontSize=12;whiteSpace=wrap;html=1;" vertex="1" parent="HqaHNRsiFfNzOrm7pFgI-15">
          <mxGeometry y="146" width="160" height="30" as="geometry" />
        </mxCell>
        <mxCell id="HqaHNRsiFfNzOrm7pFgI-23" value="typeId" style="text;strokeColor=none;fillColor=none;spacingLeft=4;spacingRight=4;overflow=hidden;rotatable=0;points=[[0,0.5],[1,0.5]];portConstraint=eastwest;fontSize=12;whiteSpace=wrap;html=1;" vertex="1" parent="HqaHNRsiFfNzOrm7pFgI-15">
          <mxGeometry y="176" width="160" height="30" as="geometry" />
        </mxCell>
        <mxCell id="HqaHNRsiFfNzOrm7pFgI-24" value="brandId" style="text;strokeColor=none;fillColor=none;spacingLeft=4;spacingRight=4;overflow=hidden;rotatable=0;points=[[0,0.5],[1,0.5]];portConstraint=eastwest;fontSize=12;whiteSpace=wrap;html=1;" vertex="1" parent="HqaHNRsiFfNzOrm7pFgI-15">
          <mxGeometry y="206" width="160" height="30" as="geometry" />
        </mxCell>
        <mxCell id="HqaHNRsiFfNzOrm7pFgI-25" value="type" style="swimlane;fontStyle=0;childLayout=stackLayout;horizontal=1;startSize=26;horizontalStack=0;resizeParent=1;resizeParentMax=0;resizeLast=0;collapsible=1;marginBottom=0;align=center;fontSize=14;" vertex="1" parent="1">
          <mxGeometry x="500" y="490" width="160" height="86" as="geometry" />
        </mxCell>
        <mxCell id="HqaHNRsiFfNzOrm7pFgI-26" value="id" style="text;strokeColor=none;fillColor=none;spacingLeft=4;spacingRight=4;overflow=hidden;rotatable=0;points=[[0,0.5],[1,0.5]];portConstraint=eastwest;fontSize=12;whiteSpace=wrap;html=1;" vertex="1" parent="HqaHNRsiFfNzOrm7pFgI-25">
          <mxGeometry y="26" width="160" height="30" as="geometry" />
        </mxCell>
        <mxCell id="HqaHNRsiFfNzOrm7pFgI-27" value="name" style="text;strokeColor=none;fillColor=none;spacingLeft=4;spacingRight=4;overflow=hidden;rotatable=0;points=[[0,0.5],[1,0.5]];portConstraint=eastwest;fontSize=12;whiteSpace=wrap;html=1;" vertex="1" parent="HqaHNRsiFfNzOrm7pFgI-25">
          <mxGeometry y="56" width="160" height="30" as="geometry" />
        </mxCell>
        <mxCell id="HqaHNRsiFfNzOrm7pFgI-29" value="brand" style="swimlane;fontStyle=0;childLayout=stackLayout;horizontal=1;startSize=26;horizontalStack=0;resizeParent=1;resizeParentMax=0;resizeLast=0;collapsible=1;marginBottom=0;align=center;fontSize=14;" vertex="1" parent="1">
          <mxGeometry x="820" y="490" width="160" height="86" as="geometry" />
        </mxCell>
        <mxCell id="HqaHNRsiFfNzOrm7pFgI-30" value="id&lt;div&gt;&lt;br&gt;&lt;/div&gt;" style="text;strokeColor=none;fillColor=none;spacingLeft=4;spacingRight=4;overflow=hidden;rotatable=0;points=[[0,0.5],[1,0.5]];portConstraint=eastwest;fontSize=12;whiteSpace=wrap;html=1;" vertex="1" parent="HqaHNRsiFfNzOrm7pFgI-29">
          <mxGeometry y="26" width="160" height="30" as="geometry" />
        </mxCell>
        <mxCell id="HqaHNRsiFfNzOrm7pFgI-31" value="name" style="text;strokeColor=none;fillColor=none;spacingLeft=4;spacingRight=4;overflow=hidden;rotatable=0;points=[[0,0.5],[1,0.5]];portConstraint=eastwest;fontSize=12;whiteSpace=wrap;html=1;" vertex="1" parent="HqaHNRsiFfNzOrm7pFgI-29">
          <mxGeometry y="56" width="160" height="30" as="geometry" />
        </mxCell>
        <mxCell id="HqaHNRsiFfNzOrm7pFgI-33" value="" style="edgeStyle=entityRelationEdgeStyle;fontSize=12;html=1;endArrow=ERoneToMany;rounded=0;" edge="1" parent="1" source="HqaHNRsiFfNzOrm7pFgI-25" target="HqaHNRsiFfNzOrm7pFgI-23">
          <mxGeometry width="100" height="100" relative="1" as="geometry">
            <mxPoint x="520" y="278" as="sourcePoint" />
            <mxPoint x="760" y="220" as="targetPoint" />
            <Array as="points">
              <mxPoint x="550" y="229" />
            </Array>
          </mxGeometry>
        </mxCell>
        <mxCell id="HqaHNRsiFfNzOrm7pFgI-34" value="" style="edgeStyle=entityRelationEdgeStyle;fontSize=12;html=1;endArrow=ERoneToMany;rounded=0;" edge="1" parent="1" source="HqaHNRsiFfNzOrm7pFgI-29" target="HqaHNRsiFfNzOrm7pFgI-24">
          <mxGeometry width="100" height="100" relative="1" as="geometry">
            <mxPoint x="670" y="486" as="sourcePoint" />
            <mxPoint x="770" y="270.0000000000001" as="targetPoint" />
          </mxGeometry>
        </mxCell>
        <mxCell id="HqaHNRsiFfNzOrm7pFgI-36" value="" style="edgeStyle=entityRelationEdgeStyle;fontSize=12;html=1;endArrow=ERmany;startArrow=ERmany;rounded=0;" edge="1" parent="1" source="HqaHNRsiFfNzOrm7pFgI-29" target="HqaHNRsiFfNzOrm7pFgI-25">
          <mxGeometry width="100" height="100" relative="1" as="geometry">
            <mxPoint x="395" y="515" as="sourcePoint" />
            <mxPoint x="245" y="371" as="targetPoint" />
            <Array as="points">
              <mxPoint x="-55" y="491" />
            </Array>
          </mxGeometry>
        </mxCell>
        <mxCell id="HqaHNRsiFfNzOrm7pFgI-41" value="device_infp" style="swimlane;fontStyle=0;childLayout=stackLayout;horizontal=1;startSize=26;horizontalStack=0;resizeParent=1;resizeParentMax=0;resizeLast=0;collapsible=1;marginBottom=0;align=center;fontSize=14;" vertex="1" parent="1">
          <mxGeometry x="1030" y="50" width="160" height="146" as="geometry" />
        </mxCell>
        <mxCell id="HqaHNRsiFfNzOrm7pFgI-42" value="id" style="text;strokeColor=none;fillColor=none;spacingLeft=4;spacingRight=4;overflow=hidden;rotatable=0;points=[[0,0.5],[1,0.5]];portConstraint=eastwest;fontSize=12;whiteSpace=wrap;html=1;" vertex="1" parent="HqaHNRsiFfNzOrm7pFgI-41">
          <mxGeometry y="26" width="160" height="30" as="geometry" />
        </mxCell>
        <mxCell id="HqaHNRsiFfNzOrm7pFgI-43" value="device_id" style="text;strokeColor=none;fillColor=none;spacingLeft=4;spacingRight=4;overflow=hidden;rotatable=0;points=[[0,0.5],[1,0.5]];portConstraint=eastwest;fontSize=12;whiteSpace=wrap;html=1;" vertex="1" parent="HqaHNRsiFfNzOrm7pFgI-41">
          <mxGeometry y="56" width="160" height="30" as="geometry" />
        </mxCell>
        <mxCell id="HqaHNRsiFfNzOrm7pFgI-44" value="title&lt;div&gt;&lt;br&gt;&lt;/div&gt;" style="text;strokeColor=none;fillColor=none;spacingLeft=4;spacingRight=4;overflow=hidden;rotatable=0;points=[[0,0.5],[1,0.5]];portConstraint=eastwest;fontSize=12;whiteSpace=wrap;html=1;" vertex="1" parent="HqaHNRsiFfNzOrm7pFgI-41">
          <mxGeometry y="86" width="160" height="30" as="geometry" />
        </mxCell>
        <mxCell id="HqaHNRsiFfNzOrm7pFgI-46" value="description" style="text;strokeColor=none;fillColor=none;spacingLeft=4;spacingRight=4;overflow=hidden;rotatable=0;points=[[0,0.5],[1,0.5]];portConstraint=eastwest;fontSize=12;whiteSpace=wrap;html=1;" vertex="1" parent="HqaHNRsiFfNzOrm7pFgI-41">
          <mxGeometry y="116" width="160" height="30" as="geometry" />
        </mxCell>
        <mxCell id="HqaHNRsiFfNzOrm7pFgI-45" value="" style="edgeStyle=entityRelationEdgeStyle;fontSize=12;html=1;endArrow=ERoneToMany;rounded=0;" edge="1" parent="1" source="HqaHNRsiFfNzOrm7pFgI-17" target="HqaHNRsiFfNzOrm7pFgI-43">
          <mxGeometry width="100" height="100" relative="1" as="geometry">
            <mxPoint x="920" y="290" as="sourcePoint" />
            <mxPoint x="1020" y="190" as="targetPoint" />
          </mxGeometry>
        </mxCell>
        <mxCell id="HqaHNRsiFfNzOrm7pFgI-60" value="basket_device" style="swimlane;fontStyle=0;childLayout=stackLayout;horizontal=1;startSize=26;horizontalStack=0;resizeParent=1;resizeParentMax=0;resizeLast=0;collapsible=1;marginBottom=0;align=center;fontSize=14;" vertex="1" parent="1">
          <mxGeometry x="520" y="50" width="160" height="116" as="geometry" />
        </mxCell>
        <mxCell id="HqaHNRsiFfNzOrm7pFgI-61" value="id" style="text;strokeColor=none;fillColor=none;spacingLeft=4;spacingRight=4;overflow=hidden;rotatable=0;points=[[0,0.5],[1,0.5]];portConstraint=eastwest;fontSize=12;whiteSpace=wrap;html=1;" vertex="1" parent="HqaHNRsiFfNzOrm7pFgI-60">
          <mxGeometry y="26" width="160" height="30" as="geometry" />
        </mxCell>
        <mxCell id="HqaHNRsiFfNzOrm7pFgI-62" value="device_id" style="text;strokeColor=none;fillColor=none;spacingLeft=4;spacingRight=4;overflow=hidden;rotatable=0;points=[[0,0.5],[1,0.5]];portConstraint=eastwest;fontSize=12;whiteSpace=wrap;html=1;" vertex="1" parent="HqaHNRsiFfNzOrm7pFgI-60">
          <mxGeometry y="56" width="160" height="30" as="geometry" />
        </mxCell>
        <mxCell id="HqaHNRsiFfNzOrm7pFgI-63" value="basket_id" style="text;strokeColor=none;fillColor=none;spacingLeft=4;spacingRight=4;overflow=hidden;rotatable=0;points=[[0,0.5],[1,0.5]];portConstraint=eastwest;fontSize=12;whiteSpace=wrap;html=1;" vertex="1" parent="HqaHNRsiFfNzOrm7pFgI-60">
          <mxGeometry y="86" width="160" height="30" as="geometry" />
        </mxCell>
        <mxCell id="HqaHNRsiFfNzOrm7pFgI-64" value="" style="edgeStyle=entityRelationEdgeStyle;fontSize=12;html=1;endArrow=ERoneToMany;rounded=0;" edge="1" parent="1" source="HqaHNRsiFfNzOrm7pFgI-10" target="HqaHNRsiFfNzOrm7pFgI-61">
          <mxGeometry width="100" height="100" relative="1" as="geometry">
            <mxPoint x="400" y="260" as="sourcePoint" />
            <mxPoint x="500" y="160" as="targetPoint" />
          </mxGeometry>
        </mxCell>
        <mxCell id="HqaHNRsiFfNzOrm7pFgI-65" value="" style="edgeStyle=entityRelationEdgeStyle;fontSize=12;html=1;endArrow=ERmandOne;startArrow=ERmandOne;rounded=0;" edge="1" parent="1" source="HqaHNRsiFfNzOrm7pFgI-62" target="HqaHNRsiFfNzOrm7pFgI-17">
          <mxGeometry width="100" height="100" relative="1" as="geometry">
            <mxPoint x="390" y="306" as="sourcePoint" />
            <mxPoint x="490" y="206" as="targetPoint" />
          </mxGeometry>
        </mxCell>
        <mxCell id="HqaHNRsiFfNzOrm7pFgI-66" value="rating" style="swimlane;fontStyle=0;childLayout=stackLayout;horizontal=1;startSize=26;horizontalStack=0;resizeParent=1;resizeParentMax=0;resizeLast=0;collapsible=1;marginBottom=0;align=center;fontSize=14;" vertex="1" parent="1">
          <mxGeometry x="190" y="300" width="160" height="146" as="geometry" />
        </mxCell>
        <mxCell id="HqaHNRsiFfNzOrm7pFgI-67" value="id" style="text;strokeColor=none;fillColor=none;spacingLeft=4;spacingRight=4;overflow=hidden;rotatable=0;points=[[0,0.5],[1,0.5]];portConstraint=eastwest;fontSize=12;whiteSpace=wrap;html=1;" vertex="1" parent="HqaHNRsiFfNzOrm7pFgI-66">
          <mxGeometry y="26" width="160" height="30" as="geometry" />
        </mxCell>
        <mxCell id="HqaHNRsiFfNzOrm7pFgI-68" value="user_id" style="text;strokeColor=none;fillColor=none;spacingLeft=4;spacingRight=4;overflow=hidden;rotatable=0;points=[[0,0.5],[1,0.5]];portConstraint=eastwest;fontSize=12;whiteSpace=wrap;html=1;" vertex="1" parent="HqaHNRsiFfNzOrm7pFgI-66">
          <mxGeometry y="56" width="160" height="30" as="geometry" />
        </mxCell>
        <mxCell id="HqaHNRsiFfNzOrm7pFgI-69" value="device_id" style="text;strokeColor=none;fillColor=none;spacingLeft=4;spacingRight=4;overflow=hidden;rotatable=0;points=[[0,0.5],[1,0.5]];portConstraint=eastwest;fontSize=12;whiteSpace=wrap;html=1;" vertex="1" parent="HqaHNRsiFfNzOrm7pFgI-66">
          <mxGeometry y="86" width="160" height="30" as="geometry" />
        </mxCell>
        <mxCell id="HqaHNRsiFfNzOrm7pFgI-70" value="rate" style="text;strokeColor=none;fillColor=none;spacingLeft=4;spacingRight=4;overflow=hidden;rotatable=0;points=[[0,0.5],[1,0.5]];portConstraint=eastwest;fontSize=12;whiteSpace=wrap;html=1;" vertex="1" parent="HqaHNRsiFfNzOrm7pFgI-66">
          <mxGeometry y="116" width="160" height="30" as="geometry" />
        </mxCell>
        <mxCell id="HqaHNRsiFfNzOrm7pFgI-71" value="" style="edgeStyle=entityRelationEdgeStyle;fontSize=12;html=1;endArrow=ERoneToMany;rounded=0;exitX=1.019;exitY=0.133;exitDx=0;exitDy=0;exitPerimeter=0;" edge="1" parent="1" source="HqaHNRsiFfNzOrm7pFgI-8" target="HqaHNRsiFfNzOrm7pFgI-66">
          <mxGeometry width="100" height="100" relative="1" as="geometry">
            <mxPoint x="200" y="330" as="sourcePoint" />
            <mxPoint x="300" y="230" as="targetPoint" />
          </mxGeometry>
        </mxCell>
        <mxCell id="HqaHNRsiFfNzOrm7pFgI-72" value="" style="edgeStyle=entityRelationEdgeStyle;fontSize=12;html=1;endArrow=ERoneToMany;rounded=0;" edge="1" parent="1" source="HqaHNRsiFfNzOrm7pFgI-19" target="HqaHNRsiFfNzOrm7pFgI-66">
          <mxGeometry width="100" height="100" relative="1" as="geometry">
            <mxPoint x="590" y="300" as="sourcePoint" />
            <mxPoint x="690" y="200" as="targetPoint" />
          </mxGeometry>
        </mxCell>
      </root>
    </mxGraphModel>
  </diagram>
</mxfile>
